<?xml version="1.0" encoding="utf-8"?>
<!-- Generator: Adobe Illustrator 16.0.0, SVG Export Plug-In . SVG Version: 6.00 Build 0)  -->
<!DOCTYPE svg PUBLIC "-//W3C//DTD SVG 1.1//EN" "http://www.w3.org/Graphics/SVG/1.1/DTD/svg11.dtd">
<svg version="1.1" id="Layer_1" xmlns="http://www.w3.org/2000/svg" xmlns:xlink="http://www.w3.org/1999/xlink" x="0px" y="0px"
	 width="50px" height="50px" viewBox="0 0 50 50" enable-background="new 0 0 50 50" xml:space="preserve">
<g>
	<path fill-rule="evenodd" clip-rule="evenodd" fill="#4F4F4F" d="M15.469,0.25c6.568,0,13.153,0,19.721,0
		c0.523,0.078,1.048,0.194,1.564,0.225C44.063,0.868,49.5,6.178,49.691,13.498c0.187,7.674,0.192,15.387-0.01,23.093
		c-0.191,7.185-5.619,12.648-12.796,12.825c-7.703,0.227-15.433,0.192-23.132,0.03c-6.377-0.16-11.216-4.466-12.5-10.673
		C0.99,37.486,0.87,36.195,0.68,34.879c0-6.565,0-13.188,0-19.785c0.076-0.57,0.194-1.126,0.231-1.696
		C1.283,7.013,5.329,2.189,11.487,0.85C12.804,0.558,14.144,0.428,15.469,0.25z M25.297,4.811c-3.65,0-7.312,0-10.964,0.143
		C9.042,5.202,5.55,8.526,5.409,13.806c-0.193,7.448-0.193,14.917,0,22.376c0.141,5.231,3.596,8.651,8.797,8.798
		c7.395,0.182,14.787,0.182,22.17,0.016c5.248-0.125,8.735-3.616,8.88-8.873c0.176-7.419,0.162-14.833,0-22.25
		c-0.111-4.891-2.954-8.098-7.791-8.706C33.445,4.665,25.297,4.681,25.297,4.811z"/>
	<path fill-rule="evenodd" clip-rule="evenodd" fill="#4F4F4F" d="M37.965,24.953c0.014,7.088-5.594,12.731-12.642,12.731
		c-7.016,0-12.601-5.576-12.633-12.615c-0.052-7.072,5.514-12.728,12.57-12.759C32.324,12.257,37.948,17.866,37.965,24.953z
		 M33.487,25.017c0.01-4.611-3.575-8.227-8.165-8.209c-4.591,0-8.177,3.598-8.162,8.209c0.004,4.55,3.591,8.167,8.099,8.167
		C29.857,33.218,33.484,29.602,33.487,25.017z"/>
	<path fill-rule="evenodd" clip-rule="evenodd" fill="#4F4F4F" d="M38.503,8.854c1.696,0,2.923,1.269,2.912,2.963
		c-0.01,1.664-1.354,2.983-2.982,2.954c-1.608-0.017-2.97-1.403-2.95-3.018C35.498,10.14,36.858,8.819,38.503,8.854z"/>
</g>
</svg>
