<?xml version="1.0" encoding="utf-8"?>
<!-- Generator: Adobe Illustrator 16.0.0, SVG Export Plug-In . SVG Version: 6.00 Build 0)  -->
<!DOCTYPE svg PUBLIC "-//W3C//DTD SVG 1.1//EN" "http://www.w3.org/Graphics/SVG/1.1/DTD/svg11.dtd">
<svg version="1.1" id="Layer_1" xmlns="http://www.w3.org/2000/svg" xmlns:xlink="http://www.w3.org/1999/xlink" x="0px" y="0px"
	 width="50px" height="50px" viewBox="0 0 50 50" enable-background="new 0 0 50 50" xml:space="preserve">
<g>
	<g>
		<path fill-rule="evenodd" clip-rule="evenodd" fill="#4F4F4F" d="M0.357,49.938c0.46-1.409,0.89-2.74,1.331-4.058
			c0.925-2.801,1.847-5.579,2.803-8.384c0.128-0.385,0.123-0.703-0.087-1.06c-1.361-2.458-2.36-5.052-2.804-7.818
			C0.45,21.143,2.151,14.412,7.045,8.614c3.845-4.575,8.782-7.344,14.651-8.246C27.2-0.487,32.424,0.452,37.292,3.206
			c5.013,2.829,8.553,6.948,10.693,12.311c1.297,3.259,1.842,6.678,1.603,10.176c-0.539,8.114-4.226,14.487-10.951,19.006
			c-5.146,3.471-10.864,4.53-16.966,3.662c-2.583-0.361-5.029-1.247-7.376-2.399c-0.421-0.226-0.792-0.24-1.228-0.094
			C9,47.182,4.913,48.495,0.844,49.799C0.716,49.842,0.587,49.858,0.357,49.938z M6.693,43.681c0.33-0.103,0.54-0.15,0.737-0.218
			c2.147-0.685,4.284-1.377,6.419-2.08c0.371-0.137,0.635-0.067,0.941,0.11c1.936,1.215,3.988,2.085,6.216,2.564
			c5.056,1.102,9.899,0.503,14.332-2.131c6.787-4.077,10.271-10.118,10.183-18.122c-0.061-5.002-1.835-9.359-5.249-13.005
			c-5.829-6.202-12.945-8.099-21.03-5.637C10.637,7.806,5.036,16.275,5.354,24.803c0.146,4.079,1.286,7.785,3.593,11.158
			c0.108,0.162,0.129,0.455,0.074,0.656c-0.476,1.458-0.992,2.888-1.467,4.345C7.268,41.813,7.002,42.683,6.693,43.681z"/>
		<path fill-rule="evenodd" clip-rule="evenodd" fill="#4F4F4F" d="M31.978,36.588c-0.833-0.184-1.678-0.284-2.455-0.553
			c-2.986-1.049-5.883-2.314-8.311-4.475c-2.971-2.695-5.374-5.846-7.069-9.509c-0.809-1.779-1.072-3.635-0.503-5.521
			c0.39-1.363,1.103-2.535,2.188-3.453c1.027-0.853,2.2-0.642,3.329-0.391c0.212,0.03,0.424,0.307,0.51,0.526
			c0.664,1.696,1.317,3.405,1.979,5.102c0.209,0.509,0.13,0.994-0.192,1.427c-0.462,0.635-0.958,1.262-1.483,1.864
			c-0.371,0.447-0.405,0.822-0.128,1.318c1.855,3.348,4.477,5.877,7.972,7.461c0.74,0.333,1.004,0.305,1.576-0.322
			c0.642-0.688,1.245-1.365,1.837-2.103c0.359-0.421,0.773-0.548,1.249-0.304c1.745,0.9,3.476,1.817,5.203,2.765
			c0.154,0.084,0.272,0.354,0.272,0.565c0.041,2.03-0.664,3.628-2.552,4.615c-1.083,0.555-2.176,0.93-3.399,0.854
			C31.985,36.488,31.978,36.528,31.978,36.588z"/>
	</g>
</g>
</svg>
