<?xml version="1.0" encoding="utf-8"?>
<!-- Generator: Adobe Illustrator 16.0.0, SVG Export Plug-In . SVG Version: 6.00 Build 0)  -->
<!DOCTYPE svg PUBLIC "-//W3C//DTD SVG 1.1//EN" "http://www.w3.org/Graphics/SVG/1.1/DTD/svg11.dtd">
<svg version="1.1" id="Layer_1" xmlns="http://www.w3.org/2000/svg" xmlns:xlink="http://www.w3.org/1999/xlink" x="0px" y="0px"
	 width="59.406px" height="62.117px" viewBox="0 0 59.406 62.117" enable-background="new 0 0 59.406 62.117" xml:space="preserve">
<g>
	<g>
		<path fill="#FFFFFF" d="M29.714,0C22.32,0.003,15.845,4.015,12.382,9.978C19.773,9.977,26.249,5.964,29.714,0z"/>
		<path fill="#F4F2F1" d="M12.382,9.979c-1.716,2.95-2.697,6.379-2.697,10.039c0,3.659,0.981,7.086,2.692,10.035
			c0.005,0,0.008,0,0.014,0c1.71-2.949,2.689-6.374,2.689-10.029C15.079,16.363,14.096,12.931,12.382,9.979z"/>
		<path fill="#ECE8E7" d="M12.376,30.053c3.465,5.968,9.924,9.98,17.324,9.983C26.235,34.069,19.775,30.056,12.376,30.053z"/>
		<path fill="#FFFFFF" d="M47.044,30.023C39.639,30.026,33.16,34.057,29.7,40.037C37.105,40.031,43.584,36,47.044,30.023z"/>
		<path fill="#FFFFFF" d="M47.047,10.021c-7.402,0.003-13.884,4.018-17.344,9.997C37.108,20.014,43.587,16,47.047,10.021z"/>
		<path fill="#FFFFFF" d="M29.703,20.018c-7.404,0.003-13.864,4.055-17.327,10.035C19.781,30.049,26.243,25.997,29.703,20.018z"/>
		<path fill="#F4F2F1" d="M47.047,10.021c-1.7,2.941-2.676,6.358-2.676,10.002c0,3.642,0.976,7.057,2.673,10
			c1.702-2.946,2.678-6.361,2.678-10.005C49.722,16.376,48.746,12.962,47.047,10.021z"/>
		<path fill="#F4F2F1" d="M29.714,0c-1.702,2.943-2.684,6.376-2.684,10.02c0,3.642,0.973,7.056,2.67,9.999
			c1.703-2.942,2.676-6.359,2.676-10.003C32.376,6.373,31.414,2.942,29.714,0z"/>
		<path fill="#F4F2F1" d="M29.703,20.018c-1.702,2.942-2.675,6.358-2.675,10.005c0,3.639,0.975,7.07,2.672,10.014
			c1.703-2.944,2.676-6.378,2.676-10.021C32.376,26.374,31.403,22.96,29.703,20.018z"/>
		<path fill="#FFFFFF" d="M29.714,0c3.458,5.983,9.925,10.012,17.333,10.017C43.587,4.032,37.122,0.005,29.714,0z"/>
		<path fill="#ECE8E7" d="M29.714,0c3.458,5.983,9.925,10.012,17.333,10.017C43.587,4.032,37.122,0.005,29.714,0z"/>
		<path fill="#ECE8E7" d="M29.7,20.018c3.46,5.984,9.938,9.998,17.344,10.005C43.587,24.038,37.108,20.023,29.7,20.018z"/>
		<path fill="#ECE8E7" d="M12.382,9.979c3.457,5.982,9.914,10.034,17.321,10.039C26.246,14.034,19.787,9.982,12.382,9.979z"/>
	</g>
	<g>
		<path fill="#FFFFFF" d="M10.391,49.488c-1.038-0.641-2.262-1.01-3.57-1.01c-3.768,0-6.82,3.053-6.82,6.82
			c0,3.766,3.053,6.819,6.82,6.819c1.309,0,2.532-0.37,3.57-1.011v0.906h3.249V48.478h-3.249V49.488z M6.82,59.186
			c-2.147,0-3.888-1.741-3.888-3.888c0-2.147,1.74-3.888,3.888-3.888c2.146,0,3.887,1.741,3.887,3.888
			C10.707,57.444,8.966,59.186,6.82,59.186z"/>
		<path fill="#FFFFFF" d="M43.991,49.488c-1.037-0.641-2.261-1.01-3.57-1.01c-3.767,0-6.819,3.053-6.819,6.82
			c0,3.766,3.053,6.819,6.819,6.819c1.31,0,2.533-0.37,3.57-1.011v0.906h3.25V48.478h-3.25V49.488z M40.421,59.186
			c-2.146,0-3.887-1.741-3.887-3.888c0-2.147,1.74-3.888,3.887-3.888s3.887,1.741,3.887,3.888
			C44.308,57.444,42.567,59.186,40.421,59.186z"/>
		<rect x="56.158" y="48.478" fill="#FFFFFF" width="3.248" height="13.535"/>
		<path fill="#FFFFFF" d="M27.666,48.478c-1.221,0-2.34,0.438-3.213,1.169c-0.007,0.006-0.27,0.285-0.276,0.29
			c-0.735-0.793-1.719-1.459-2.933-1.459c-1.175,0-2.255,0.418-3.105,1.119v-1.119H14.89v13.535h3.249V59.99v-2.375v-4.042h0.001
			c0-0.011-0.001-0.021-0.001-0.032c0-1.108,0.893-2.005,1.995-2.005c1.101,0,1.995,0.897,1.995,2.005
			c0,0.01-0.003,0.021-0.003,0.032h0.003v6.417h-0.011v2.022h3.269v-1.91v-1.92v-4.582h0.001c0-0.011-0.001-0.022-0.001-0.033
			c0-1.123,0.904-2.031,2.021-2.031c1.116,0,2.022,0.909,2.022,2.031c0,0.011-0.002,0.022-0.002,0.033h0.002v4.813v1.689v1.91h3.289
			v-8.408C32.72,50.773,30.456,48.478,27.666,48.478z"/>
		<path fill="#FFFFFF" d="M51.57,48.478h-3.247v13.535h3.244v-6.715l0.003-0.873c0-2.04,1.573-2.838,3.571-3v-2.948
			c-1.309,0-2.532,0.37-3.571,1.01V48.478z"/>
		<circle fill="#FFFFFF" cx="57.782" cy="45.738" r="1.624"/>
	</g>
</g>
</svg>
