<?xml version="1.0" encoding="utf-8"?>
<!-- Generator: Adobe Illustrator 16.0.0, SVG Export Plug-In . SVG Version: 6.00 Build 0)  -->
<!DOCTYPE svg PUBLIC "-//W3C//DTD SVG 1.1//EN" "http://www.w3.org/Graphics/SVG/1.1/DTD/svg11.dtd">
<svg version="1.1" id="Layer_1" xmlns="http://www.w3.org/2000/svg" xmlns:xlink="http://www.w3.org/1999/xlink" x="0px" y="0px"
	 width="95.84px" height="28.703px" viewBox="0 0 95.84 28.703" enable-background="new 0 0 95.84 28.703" xml:space="preserve">
<g>
	<g>
		<path fill="#FFFFFF" d="M14.361,0C9.06,0.002,4.417,2.878,1.934,7.153C7.234,7.152,11.876,4.276,14.361,0z"/>
		<path fill="#F4F2F1" d="M1.934,7.154C0.705,9.27,0,11.728,0,14.351c0,2.623,0.703,5.08,1.931,7.194c0.003,0,0.006,0,0.009,0
			c1.227-2.114,1.929-4.569,1.929-7.19C3.869,11.73,3.164,9.271,1.934,7.154z"/>
		<path fill="#ECE8E7" d="M1.931,21.545c2.484,4.278,7.115,7.155,12.42,7.157C11.867,24.424,7.235,21.547,1.931,21.545z"/>
		<path fill="#FFFFFF" d="M26.785,21.524c-5.309,0.002-9.953,2.892-12.434,7.179C19.66,28.699,24.304,25.809,26.785,21.524z"/>
		<path fill="#FFFFFF" d="M26.787,7.184c-5.308,0.002-9.953,2.88-12.434,7.167C19.661,14.348,24.306,11.47,26.787,7.184z"/>
		<path fill="#FFFFFF" d="M14.353,14.351c-5.309,0.002-9.94,2.907-12.422,7.194C7.24,21.542,11.872,18.637,14.353,14.351z"/>
		<path fill="#F4F2F1" d="M26.787,7.184c-1.219,2.109-1.918,4.558-1.918,7.17c0,2.611,0.698,5.059,1.916,7.169
			c1.22-2.112,1.919-4.561,1.919-7.173C28.704,11.74,28.005,9.293,26.787,7.184z"/>
		<path fill="#F4F2F1" d="M14.361,0c-1.221,2.11-1.925,4.571-1.925,7.183c0,2.611,0.697,5.059,1.915,7.168
			c1.221-2.109,1.918-4.559,1.918-7.171C16.269,4.569,15.579,2.109,14.361,0z"/>
		<path fill="#F4F2F1" d="M14.352,14.351c-1.22,2.109-1.917,4.559-1.917,7.173c0,2.608,0.698,5.068,1.916,7.179
			c1.221-2.11,1.917-4.572,1.917-7.184S15.571,16.46,14.352,14.351z"/>
		<path fill="#FFFFFF" d="M14.361,0c2.479,4.29,7.114,7.178,12.425,7.181C24.306,2.891,19.67,0.003,14.361,0z"/>
		<path fill="#ECE8E7" d="M14.361,0c2.479,4.29,7.114,7.178,12.425,7.181C24.306,2.891,19.67,0.003,14.361,0z"/>
		<path fill="#ECE8E7" d="M14.351,14.351c2.479,4.29,7.124,7.168,12.434,7.173C24.306,17.233,19.662,14.354,14.351,14.351z"/>
		<path fill="#ECE8E7" d="M1.934,7.154c2.479,4.289,7.108,7.194,12.419,7.197C11.874,10.061,7.244,7.156,1.934,7.154z"/>
	</g>
	<g>
		<path fill="#FFFFFF" d="M46.825,9.452c-1.038-0.641-2.262-1.01-3.57-1.01c-3.768,0-6.82,3.053-6.82,6.82
			c0,3.766,3.053,6.819,6.82,6.819c1.309,0,2.532-0.37,3.57-1.011v0.906h3.249V8.441h-3.249V9.452z M43.254,19.149
			c-2.147,0-3.888-1.741-3.888-3.888c0-2.147,1.74-3.888,3.888-3.888c2.146,0,3.887,1.741,3.887,3.888
			C47.141,17.408,45.4,19.149,43.254,19.149z"/>
		<path fill="#FFFFFF" d="M80.425,9.452c-1.037-0.641-2.261-1.01-3.57-1.01c-3.767,0-6.819,3.053-6.819,6.82
			c0,3.766,3.053,6.819,6.819,6.819c1.31,0,2.533-0.37,3.57-1.011v0.906h3.25V8.441h-3.25V9.452z M76.855,19.149
			c-2.146,0-3.887-1.741-3.887-3.888c0-2.147,1.74-3.888,3.887-3.888s3.887,1.741,3.887,3.888
			C80.742,17.408,79.001,19.149,76.855,19.149z"/>
		<rect x="92.592" y="8.441" fill="#FFFFFF" width="3.248" height="13.535"/>
		<path fill="#FFFFFF" d="M64.1,8.441c-1.221,0-2.34,0.438-3.213,1.169c-0.007,0.006-0.27,0.285-0.276,0.29
			c-0.735-0.793-1.719-1.459-2.933-1.459c-1.175,0-2.255,0.418-3.105,1.119V8.441h-3.249v13.535h3.249v-2.022v-2.375v-4.042h0.001
			c0-0.011-0.001-0.021-0.001-0.032c0-1.108,0.893-2.005,1.995-2.005c1.101,0,1.995,0.897,1.995,2.005
			c0,0.01-0.003,0.021-0.003,0.032h0.003v6.417h-0.011v2.022h3.269v-1.91v-1.92v-4.582h0.001c0-0.011-0.001-0.022-0.001-0.033
			c0-1.123,0.904-2.031,2.021-2.031c1.116,0,2.022,0.909,2.022,2.031c0,0.011-0.002,0.022-0.002,0.033h0.002v4.813v1.689v1.91h3.289
			v-8.408C69.154,10.737,66.89,8.441,64.1,8.441z"/>
		<path fill="#FFFFFF" d="M88.004,8.441h-3.247v13.535h3.244v-6.715l0.003-0.873c0-2.04,1.573-2.838,3.571-3V8.441
			c-1.309,0-2.532,0.37-3.571,1.01V8.441z"/>
		<circle fill="#FFFFFF" cx="94.216" cy="5.701" r="1.624"/>
	</g>
</g>
</svg>
