<?xml version="1.0" encoding="utf-8"?>
<!-- Generator: Adobe Illustrator 16.0.0, SVG Export Plug-In . SVG Version: 6.00 Build 0)  -->
<!DOCTYPE svg PUBLIC "-//W3C//DTD SVG 1.1//EN" "http://www.w3.org/Graphics/SVG/1.1/DTD/svg11.dtd">
<svg version="1.1" id="Layer_1" xmlns="http://www.w3.org/2000/svg" xmlns:xlink="http://www.w3.org/1999/xlink" x="0px" y="0px"
	 width="95.84px" height="28.703px" viewBox="0 0 95.84 28.703" enable-background="new 0 0 95.84 28.703" xml:space="preserve">
<g>
	<g>
		<path fill="#7FC7E1" d="M14.36,0C9.06,0.002,4.417,2.877,1.933,7.154C7.234,7.152,11.876,4.276,14.36,0z"/>
		<path fill="#75BBD2" d="M1.933,7.154C0.704,9.27,0,11.728,0,14.351s0.703,5.08,1.932,7.194c0.002,0,0.005,0,0.008,0
			c1.227-2.114,1.929-4.57,1.929-7.19C3.869,11.73,3.164,9.271,1.933,7.154z"/>
		<path fill="#6DAFC5" d="M1.932,21.545c2.484,4.278,7.115,7.156,12.419,7.157C11.866,24.423,7.235,21.546,1.932,21.545z"/>
		<path fill="#7FC7E1" d="M26.784,21.523c-5.308,0.002-9.952,2.893-12.433,7.18C19.659,28.7,24.304,25.809,26.784,21.523z"/>
		<path fill="#7FC7E1" d="M26.787,7.184c-5.309,0.002-9.954,2.881-12.435,7.167C19.66,14.349,24.306,11.47,26.787,7.184z"/>
		<path fill="#7FC7E1" d="M14.352,14.351c-5.308,0.002-9.94,2.908-12.42,7.194C7.239,21.543,11.872,18.638,14.352,14.351z"/>
		<path fill="#75BBD2" d="M26.787,7.184c-1.22,2.11-1.918,4.559-1.918,7.171c0,2.611,0.697,5.059,1.915,7.168
			c1.22-2.11,1.919-4.56,1.919-7.172C28.703,11.74,28.005,9.292,26.787,7.184z"/>
		<path fill="#75BBD2" d="M14.36,0c-1.219,2.11-1.924,4.571-1.924,7.184c0,2.611,0.698,5.059,1.916,7.167
			c1.22-2.11,1.918-4.559,1.918-7.171C16.269,4.569,15.578,2.109,14.36,0z"/>
		<path fill="#75BBD2" d="M14.352,14.351c-1.219,2.11-1.917,4.56-1.917,7.172c0,2.61,0.699,5.07,1.917,7.18
			c1.22-2.11,1.917-4.571,1.917-7.185C16.268,18.908,15.571,16.46,14.352,14.351z"/>
		<path fill="#5FC3B4" d="M14.36,0c2.479,4.291,7.114,7.178,12.425,7.181C24.306,2.891,19.67,0.003,14.36,0z"/>
		<path fill="#6DAFC5" d="M14.36,0c2.479,4.291,7.114,7.178,12.425,7.181C24.306,2.891,19.67,0.003,14.36,0z"/>
		<path fill="#6DAFC5" d="M14.351,14.351c2.479,4.29,7.123,7.169,12.433,7.172C24.305,17.233,19.662,14.354,14.351,14.351z"/>
		<path fill="#6DAFC5" d="M1.933,7.154c2.479,4.29,7.109,7.194,12.419,7.197C11.873,10.061,7.244,7.157,1.933,7.154z"/>
	</g>
	<g>
		<path fill="#75BBD2" d="M46.825,9.451c-1.039-0.64-2.262-1.01-3.571-1.01c-3.767,0-6.82,3.053-6.82,6.819
			c0,3.767,3.053,6.82,6.82,6.82c1.309,0,2.532-0.37,3.571-1.01v0.906h3.248V8.441h-3.248V9.451z M43.254,19.148
			c-2.147,0-3.887-1.741-3.887-3.888c0-2.146,1.74-3.886,3.887-3.886c2.146,0,3.887,1.74,3.887,3.886
			C47.141,17.407,45.4,19.148,43.254,19.148z"/>
		<path fill="#75BBD2" d="M80.425,9.451c-1.038-0.64-2.261-1.01-3.57-1.01c-3.767,0-6.819,3.053-6.819,6.819
			c0,3.767,3.053,6.82,6.819,6.82c1.31,0,2.532-0.37,3.57-1.01v0.906h3.249V8.441h-3.249V9.451z M76.855,19.148
			c-2.147,0-3.888-1.741-3.888-3.888c0-2.146,1.74-3.886,3.888-3.886c2.146,0,3.888,1.74,3.888,3.886
			C80.743,17.407,79.001,19.148,76.855,19.148z"/>
		<rect x="92.592" y="8.441" fill="#75BBD2" width="3.248" height="13.536"/>
		<path fill="#75BBD2" d="M64.1,8.441c-1.221,0-2.341,0.439-3.214,1.17C60.88,9.618,60.618,9.895,60.611,9.9
			c-0.735-0.793-1.721-1.459-2.933-1.459c-1.176,0-2.255,0.419-3.106,1.119V8.441h-3.249v13.536h3.249v-2.024v-2.375v-4.041h0.001
			c0-0.011-0.001-0.021-0.001-0.032c0-1.108,0.894-2.005,1.995-2.005c1.103,0,1.995,0.897,1.995,2.005
			c0,0.011-0.002,0.021-0.002,0.032h0.002v6.416h-0.011v2.024h3.269v-1.912v-1.92v-4.582h0.002c0-0.011-0.002-0.021-0.002-0.033
			c0-1.122,0.905-2.031,2.022-2.031c1.116,0,2.021,0.91,2.021,2.031c0,0.011-0.002,0.022-0.002,0.033h0.002v4.812v1.689v1.912h3.29
			v-8.409C69.154,10.737,66.89,8.441,64.1,8.441z"/>
		<path fill="#75BBD2" d="M88.004,8.441h-3.248v13.536H88V15.26l0.004-0.871c0-2.041,1.572-2.838,3.571-2.999V8.441
			c-1.311,0-2.533,0.37-3.571,1.01V8.441z"/>
		<circle fill="#75BBD2" cx="94.216" cy="5.701" r="1.624"/>
	</g>
</g>
</svg>
