<?xml version="1.0" encoding="utf-8"?>
<!-- Generator: Adobe Illustrator 16.0.0, SVG Export Plug-In . SVG Version: 6.00 Build 0)  -->
<!DOCTYPE svg PUBLIC "-//W3C//DTD SVG 1.1//EN" "http://www.w3.org/Graphics/SVG/1.1/DTD/svg11.dtd">
<svg version="1.1" id="Layer_1" xmlns="http://www.w3.org/2000/svg" xmlns:xlink="http://www.w3.org/1999/xlink" x="0px" y="0px"
	 width="59.406px" height="62.117px" viewBox="0 0 59.406 62.117" enable-background="new 0 0 59.406 62.117" xml:space="preserve">
<g>
	<g>
		<path fill="#7FC7E1" d="M29.715,0c-7.394,0.003-13.869,4.013-17.334,9.979C19.775,9.977,26.25,5.964,29.715,0z"/>
		<path fill="#75BBD2" d="M12.381,9.979c-1.714,2.95-2.696,6.38-2.696,10.039s0.981,7.086,2.694,10.034c0.003,0,0.008,0,0.012,0
			c1.711-2.948,2.69-6.375,2.69-10.028C15.081,16.362,14.098,12.932,12.381,9.979z"/>
		<path fill="#6DAFC5" d="M12.379,30.053c3.465,5.969,9.924,9.981,17.322,9.984C26.236,34.068,19.776,30.055,12.379,30.053z"/>
		<path fill="#7FC7E1" d="M47.045,30.022c-7.403,0.003-13.882,4.034-17.342,10.015C37.106,40.031,43.585,36,47.045,30.022z"/>
		<path fill="#7FC7E1" d="M47.049,10.021c-7.404,0.002-13.885,4.019-17.346,9.998C37.107,20.016,43.588,16,47.049,10.021z"/>
		<path fill="#7FC7E1" d="M29.703,20.019c-7.402,0.003-13.864,4.057-17.324,10.034C19.782,30.05,26.244,25.998,29.703,20.019z"/>
		<path fill="#75BBD2" d="M47.049,10.021c-1.701,2.942-2.676,6.358-2.676,10.004c0,3.642,0.973,7.056,2.672,9.998
			c1.702-2.945,2.677-6.361,2.677-10.004S48.748,12.963,47.049,10.021z"/>
		<path fill="#75BBD2" d="M29.715,0c-1.701,2.942-2.684,6.375-2.684,10.021c0,3.643,0.973,7.056,2.672,9.998
			c1.701-2.943,2.675-6.36,2.675-10.004C32.378,6.372,31.414,2.942,29.715,0z"/>
		<path fill="#75BBD2" d="M29.703,20.019c-1.701,2.942-2.674,6.358-2.674,10.004c0,3.64,0.975,7.072,2.674,10.015
			c1.701-2.945,2.674-6.378,2.674-10.022C32.377,26.374,31.404,22.961,29.703,20.019z"/>
		<path fill="#5FC3B4" d="M29.715,0c3.459,5.985,9.924,10.012,17.332,10.018C43.588,4.032,37.122,0.004,29.715,0z"/>
		<path fill="#6DAFC5" d="M29.715,0c3.459,5.985,9.924,10.012,17.332,10.018C43.588,4.032,37.122,0.004,29.715,0z"/>
		<path fill="#6DAFC5" d="M29.703,20.019c3.458,5.982,9.936,9.998,17.342,10.004C43.587,24.037,37.109,20.021,29.703,20.019z"/>
		<path fill="#6DAFC5" d="M12.381,9.979c3.459,5.982,9.916,10.033,17.322,10.039C26.246,14.033,19.789,9.983,12.381,9.979z"/>
	</g>
	<g>
		<path fill="#75BBD2" d="M10.391,49.488c-1.039-0.64-2.262-1.01-3.571-1.01c-3.767,0-6.82,3.053-6.82,6.818
			c0,3.768,3.053,6.82,6.82,6.82c1.309,0,2.532-0.369,3.571-1.01v0.906h3.247V48.479h-3.247V49.488z M6.82,59.186
			c-2.147,0-3.887-1.742-3.887-3.889c0-2.146,1.74-3.886,3.887-3.886c2.146,0,3.887,1.74,3.887,3.886
			C10.707,57.443,8.966,59.186,6.82,59.186z"/>
		<path fill="#75BBD2" d="M43.991,49.488c-1.037-0.64-2.26-1.01-3.57-1.01c-3.766,0-6.818,3.053-6.818,6.818
			c0,3.768,3.053,6.82,6.818,6.82c1.311,0,2.533-0.369,3.57-1.01v0.906h3.25V48.479h-3.25V49.488z M40.421,59.186
			c-2.146,0-3.887-1.742-3.887-3.889c0-2.146,1.74-3.886,3.887-3.886s3.889,1.74,3.889,3.886
			C44.31,57.443,42.567,59.186,40.421,59.186z"/>
		<rect x="56.159" y="48.479" fill="#75BBD2" width="3.248" height="13.535"/>
		<path fill="#75BBD2" d="M27.667,48.479c-1.221,0-2.342,0.439-3.215,1.17c-0.006,0.006-0.268,0.283-0.275,0.289
			c-0.734-0.793-1.721-1.459-2.932-1.459c-1.176,0-2.256,0.419-3.107,1.119v-1.119h-3.25v13.535h3.25V59.99v-2.375v-4.041l0,0
			c0-0.012,0-0.021,0-0.033c0-1.107,0.893-2.004,1.996-2.004c1.102,0,1.994,0.896,1.994,2.004c0,0.012-0.002,0.021-0.002,0.033
			h0.002v6.416h-0.01v2.023h3.268v-1.912v-1.92v-4.581h0.002c0-0.011-0.002-0.021-0.002-0.032c0-1.122,0.906-2.031,2.023-2.031
			c1.115,0,2.021,0.909,2.021,2.031c0,0.011-0.002,0.021-0.002,0.032h0.002v4.812v1.689v1.912h3.289v-8.408
			C32.72,50.774,30.456,48.479,27.667,48.479z"/>
		<path fill="#75BBD2" d="M51.571,48.479h-3.248v13.535h3.244v-6.717l0.004-0.871c0-2.04,1.572-2.838,3.57-2.998v-2.949
			c-1.311,0-2.533,0.37-3.57,1.01V48.479z"/>
		<circle fill="#75BBD2" cx="57.783" cy="45.738" r="1.624"/>
	</g>
</g>
</svg>
