<?xml version="1.0" encoding="utf-8"?>
<!-- Generator: Adobe Illustrator 16.0.0, SVG Export Plug-In . SVG Version: 6.00 Build 0)  -->
<!DOCTYPE svg PUBLIC "-//W3C//DTD SVG 1.1//EN" "http://www.w3.org/Graphics/SVG/1.1/DTD/svg11.dtd">
<svg version="1.1" id="Layer_1" xmlns="http://www.w3.org/2000/svg" xmlns:xlink="http://www.w3.org/1999/xlink" x="0px" y="0px"
	 width="27.98px" height="27.98px" viewBox="0 0 27.98 27.98" enable-background="new 0 0 27.98 27.98" xml:space="preserve">
<g>
	<path fill="#FFFFFF" d="M13.997,0.101C8.867,0.103,4.375,2.886,1.972,7.024C7.1,7.023,11.594,4.239,13.997,0.101z"/>
	<path fill="#F4F2F1" d="M1.972,7.025c-1.19,2.047-1.871,4.426-1.871,6.965c0,2.539,0.681,4.917,1.868,6.963c0.003,0,0.005,0,0.01,0
		c1.186-2.046,1.866-4.422,1.866-6.958C3.844,11.454,3.161,9.073,1.972,7.025z"/>
	<path fill="#ECE8E7" d="M1.968,20.952c2.405,4.142,6.886,6.925,12.02,6.927C11.583,23.739,7.102,20.955,1.968,20.952z"/>
	<path fill="#FFFFFF" d="M26.022,20.932c-5.139,0.002-9.633,2.799-12.034,6.948C19.125,27.876,23.621,25.079,26.022,20.932z"/>
	<path fill="#FFFFFF" d="M26.024,7.053c-5.136,0.002-9.633,2.788-12.034,6.936C19.127,13.987,23.622,11.202,26.024,7.053z"/>
	<path fill="#FFFFFF" d="M13.99,13.99c-5.137,0.003-9.619,2.813-12.022,6.963C7.105,20.949,11.59,18.139,13.99,13.99z"/>
	<path fill="#F4F2F1" d="M26.024,7.053c-1.179,2.041-1.856,4.412-1.856,6.941c0,2.526,0.678,4.896,1.854,6.938
		c1.181-2.044,1.858-4.414,1.858-6.942C27.88,11.463,27.202,9.094,26.024,7.053z"/>
	<path fill="#F4F2F1" d="M13.997,0.101c-1.18,2.042-1.862,4.424-1.862,6.952c0,2.527,0.675,4.896,1.853,6.938
		c1.182-2.042,1.856-4.413,1.856-6.941C15.844,4.523,15.177,2.142,13.997,0.101z"/>
	<path fill="#F4F2F1" d="M13.99,13.99c-1.181,2.042-1.856,4.412-1.856,6.942c0,2.525,0.677,4.905,1.854,6.948
		c1.182-2.043,1.856-4.425,1.856-6.954C15.844,18.401,15.169,16.031,13.99,13.99z"/>
	<path fill="#FFFFFF" d="M13.997,0.101c2.4,4.151,6.886,6.947,12.027,6.95C23.622,2.899,19.138,0.104,13.997,0.101z"/>
	<path fill="#ECE8E7" d="M13.997,0.101c2.4,4.151,6.886,6.947,12.027,6.95C23.622,2.899,19.138,0.104,13.997,0.101z"/>
	<path fill="#ECE8E7" d="M13.988,13.99c2.401,4.152,6.896,6.937,12.034,6.942C23.622,16.78,19.127,13.994,13.988,13.99z"/>
	<path fill="#ECE8E7" d="M1.972,7.025c2.398,4.15,6.879,6.962,12.018,6.965C11.592,9.838,7.11,7.027,1.972,7.025z"/>
</g>
</svg>
